<svg width="23.000000" height="27.000000" viewBox="0 0 23 27" fill="none" xmlns="http://www.w3.org/2000/svg" xmlns:xlink="http://www.w3.org/1999/xlink">
	<desc>
			Created with Pixso.
	</desc>
	<defs/>
	<path id="Rectangle 38" d="M0.95 7.95C0.97 7.41 1.41 7 1.95 7L21.04 7C21.58 7 22.02 7.41 22.04 7.95L22.94 25.95C22.97 26.52 22.52 27 21.94 27L1.05 27C0.47 27 0.02 26.52 0.05 25.95L0.95 7.95ZM20.57 8.5L2.42 8.5L1.57 25.5L21.42 25.5L20.57 8.5Z" fill="#313133" fill-opacity="1.000000" fill-rule="evenodd"/>
	<path id="Subtract" d="M17.9684 11C17.9905 10.5114 18 10.0104 18 9.5C18 4.2533 16.9167 0 11.5 0C6.08333 0 5 4.2533 5 9.5C5 10.0104 5 10.5114 5.00598 11L6.5065 11Q6.5 10.4279 6.5 9.5Q6.5 7.47412 6.73418 6.04468Q6.98833 4.49329 7.5323 3.50671Q7.99428 2.66895 8.70065 2.19666Q8.8118 2.12231 8.92899 2.05701Q9.92937 1.5 11.5 1.5Q13.0706 1.5 14.071 2.05701Q14.1882 2.12231 14.2993 2.19666L14.2994 2.19666Q15.0057 2.66895 15.4677 3.50671Q16.0117 4.49329 16.2658 6.04468Q16.5 7.47412 16.5 9.5Q16.5 10.298 16.466 11L17.9684 11Z" clip-rule="evenodd" fill="#313133" fill-opacity="1.000000" fill-rule="evenodd"/>
</svg>
