<svg width="31.999985" height="33.634644" viewBox="0 0 32 33.6346" fill="none" xmlns="http://www.w3.org/2000/svg" xmlns:xlink="http://www.w3.org/1999/xlink">
	<desc>
			Created with Pixso.
	</desc>
	<defs>
		<filter id="filter_1_120_dd" x="0.000000" y="0.000000" width="31.999985" height="33.634644" filterUnits="userSpaceOnUse" color-interpolation-filters="sRGB">
			<feFlood flood-opacity="0" result="BackgroundImageFix"/>
			<feColorMatrix in="SourceAlpha" type="matrix" values="0 0 0 0 0 0 0 0 0 0 0 0 0 0 0 0 0 0 127 0" result="hardAlpha"/>
			<feOffset dx="0" dy="4"/>
			<feGaussianBlur stdDeviation="1.33333"/>
			<feComposite in2="hardAlpha" operator="out" k2="-1" k3="1"/>
			<feColorMatrix type="matrix" values="0 0 0 0 0 0 0 0 0 0 0 0 0 0 0 0 0 0 0.25 0"/>
			<feBlend mode="normal" in2="BackgroundImageFix" result="effect_dropShadow_1"/>
			<feBlend mode="normal" in="SourceGraphic" in2="effect_dropShadow_1" result="shape"/>
		</filter>
	</defs>
	<g filter="url(#filter_1_120_dd)">
		<path id="Vector" d="M27.71 24.06L22.01 18.26C23.87 16.31 25.05 13.66 25.05 10.7C25.05 4.78 20.34 0 14.52 0C8.7 0 4 4.78 4 10.7C4 16.62 8.7 21.41 14.52 21.41C16.75 21.41 18.85 20.65 20.59 19.46L26.41 25.38C26.59 25.57 26.84 25.63 27.09 25.63C27.34 25.63 27.58 25.57 27.77 25.38C28.08 25 28.08 24.43 27.71 24.06ZM5.85 10.7C5.85 5.85 9.75 1.88 14.52 1.88C19.29 1.88 23.19 5.85 23.19 10.7C23.19 15.55 19.29 19.52 14.52 19.52C9.75 19.52 5.85 15.55 5.85 10.7Z" fill="#313133" fill-opacity="1.000000" fill-rule="nonzero"/>
	</g>
</svg>
